PathFileType	4	(X/Y/Z)	 s10c0202.trc
DataRate	CameraRate	NumFrames	NumMarkers	Units	OrigDataRate	OrigDataStartFrame	OrigNumFrames
200	200	5	50	mm	200	751	2000
Frame#	Time	racr			lacr			c7			jug			rlel			rdr			llel			ldr			s2			lic			ric			lasi			rasi			rpsi			lpsi			rgt			lgt			rth1			rth2			rth3			rth4			rlfc			rmfc			rsh1			rsh2			rsh3			rsh4			rlmal			rmmal			rcal			rtoe			rmt5			lth1			lth2			lth4			lth3			llfc			lmfc			llmal			lmmal			lcal			lmt5			lsh1			lsh2			lsh3			lsh4			ltoe			SBIKE			LBIKE			RBIKE			
		X1	Y1	Z1	X2	Y2	Z2	X3	Y3	Z3	X4	Y4	Z4	X5	Y5	Z5	X6	Y6	Z6	X7	Y7	Z7	X8	Y8	Z8	X9	Y9	Z9	X10	Y10	Z10	X11	Y11	Z11	X12	Y12	Z12	X13	Y13	Z13	X14	Y14	Z14	X15	Y15	Z15	X16	Y16	Z16	X17	Y17	Z17	X18	Y18	Z18	X19	Y19	Z19	X20	Y20	Z20	X21	Y21	Z21	X22	Y22	Z22	X23	Y23	Z23	X24	Y24	Z24	X25	Y25	Z25	X26	Y26	Z26	X27	Y27	Z27	X28	Y28	Z28	X29	Y29	Z29	X30	Y30	Z30	X31	Y31	Z31	X32	Y32	Z32	X33	Y33	Z33	X34	Y34	Z34	X35	Y35	Z35	X36	Y36	Z36	X37	Y37	Z37	X38	Y38	Z38	X39	Y39	Z39	X40	Y40	Z40	X41	Y41	Z41	X42	Y42	Z42	X43	Y43	Z43	X44	Y44	Z44	X45	Y45	Z45	X46	Y46	Z46	X47	Y47	Z47	X48	Y48	Z48	X49	Y49	Z49	X50	Y50	Z50	
751	3.7550	393.625299	1276.983425	-12.236554	466.724560	1284.677142	-320.724304	377.662410	1339.180535	-174.247055	386.945821	1191.562287	-171.833607	407.865141	1017.432410	56.948371	596.246700	912.996537	-4.374714	452.575516	1034.672340	-463.490191	616.761362	913.902809	-383.087582	-108.426761	1090.708145	-243.883524	59.483490	1122.561419	-384.089599	47.531138	1119.824544	-89.886703	98.695350	1037.489514	-349.822146	65.573784	1046.919596	-93.729671	-79.401943	1151.064737	-185.136527	-61.925959	1158.136886	-294.270908	-39.647238	1016.916025	-45.968466	-14.066891	967.740014	-421.630312	79.758956	929.530819	-20.340242	166.912666	913.951513	-31.699804	232.389132	858.711067	-31.823091	180.486382	946.762553	-43.986050	325.838582	798.919666	-49.017742	309.067232	778.518733	-168.870544	226.457626	739.252600	-18.635240	173.487097	668.559777	-31.913261	94.688265	633.663255	-37.359918	194.757355	647.366320	-56.561028	10.763588	565.690165	-53.275244	43.620454	565.164315	-130.994728	-38.729197	579.922722	-103.973703	139.453581	414.875031	-92.451402	54.999533	445.700342	-36.315053	65.550406	860.527390	-425.945013	136.155366	812.841347	-408.301307	162.166480	837.143466	-399.110168	173.292715	733.304310	-392.133535	244.568192	649.581492	-368.701727	234.207213	640.822351	-256.521002	183.822135	280.698386	-369.025392	199.958578	287.059129	-289.025886	131.600922	252.135234	-329.226795	302.854654	196.147159	-386.203772	200.588927	534.654377	-401.398476	222.825156	451.526425	-385.780584	199.568682	365.824143	-382.475311	250.672880	454.803657	-359.677766	383.805465	223.569841	-325.517296	-204.490893	832.876237	-225.250264	-78.235061	81.560389	-423.734170	-102.657040	80.538685	-24.471851	
752	3.7600	389.853088	1277.587706	-8.733283	467.923777	1285.270134	-317.416372	377.770857	1339.333813	-172.792320	386.307575	1192.788609	-169.256972	407.135708	1016.982274	57.504640	596.205279	913.027765	-4.504493	453.620350	1036.354877	-462.799246	616.819193	914.340182	-382.614234	-107.942686	1090.375523	-246.463621	61.395332	1121.343937	-385.631008	45.925383	1121.286401	-91.095558	99.422938	1036.560311	-349.914900	64.966621	1048.223631	-94.272362	-79.405249	1150.961454	-188.610365	-60.992637	1157.699676	-297.386286	-40.539490	1018.461290	-47.041509	-13.187664	967.032732	-423.153730	80.759742	933.716811	-19.522397	168.312646	919.904013	-31.184302	235.024027	866.315997	-31.534153	181.009215	953.327621	-43.977281	330.499629	808.708848	-48.784089	315.232602	788.073185	-169.193723	231.596706	747.877090	-18.622178	179.952695	676.503952	-31.820313	101.723248	641.116646	-37.026989	201.414883	655.475133	-56.366393	18.745643	572.283886	-52.779231	51.097334	571.634716	-130.789422	-30.643565	587.497672	-103.264442	145.622707	419.856259	-92.642749	62.042602	452.024058	-36.196926	64.748711	859.722672	-427.141831	134.964427	810.749321	-410.171890	160.855194	834.249835	-400.768516	169.120896	729.812081	-393.213062	237.840964	645.327779	-369.762874	224.970396	635.428857	-256.872033	177.926656	275.481947	-369.475103	194.186050	281.672399	-289.594196	125.819514	247.430456	-329.580079	296.684455	189.931427	-386.552312	194.158419	530.124760	-402.318248	216.418459	447.013702	-386.606963	193.335375	361.249118	-383.338437	244.201602	450.434081	-360.523845	377.766401	216.480898	-325.787873	-204.493071	832.892669	-225.285212	-78.229962	81.572966	-423.763955	-102.644577	80.520732	-24.452546	
753	3.7650	386.144215	1278.119282	-5.246879	469.021678	1285.653725	-314.132854	376.519024	1340.108641	-170.421453	385.684831	1193.846121	-166.691207	406.399880	1016.587254	58.024425	596.107199	913.062879	-4.602982	454.476805	1037.883082	-462.136080	616.979677	914.742335	-382.360840	-107.322010	1089.199780	-248.402948	63.319210	1120.099868	-387.094395	44.415597	1122.595875	-92.194098	100.161098	1036.075763	-350.040881	64.376939	1049.444787	-94.849689	-78.788757	1150.744993	-192.874445	-59.936453	1157.473651	-300.590395	-41.317495	1020.221625	-47.400335	-12.541542	966.358270	-424.559186	81.463443	937.095262	-19.951301	169.660186	926.096975	-31.191311	237.587502	874.073500	-31.120386	181.183515	959.603938	-44.452629	334.989786	818.773529	-48.415818	321.315997	797.785842	-169.348148	237.008540	756.514032	-18.557523	186.336722	684.373932	-31.834805	108.542789	647.866483	-37.363265	208.234565	663.440455	-56.075348	27.132330	578.639847	-52.306308	59.333868	577.688241	-130.541521	-22.397290	594.004457	-103.004708	152.717738	425.772404	-92.021981	69.522430	457.995114	-35.823012	63.887708	858.972474	-428.365490	132.758049	808.319774	-411.246370	159.206914	831.230523	-401.566027	164.872334	726.646781	-394.404357	231.192476	641.336442	-370.390398	216.293478	631.456901	-256.853361	171.794354	271.015474	-369.971590	188.123332	276.721474	-290.175336	119.826755	243.386862	-330.099208	290.032635	183.797899	-386.869466	187.677963	525.747975	-403.332310	209.852410	442.717227	-387.515976	186.668903	356.559048	-384.176594	237.609429	445.986592	-361.347423	371.499774	209.603112	-326.134494	-204.492515	832.889222	-225.294011	-78.219681	81.556391	-423.760199	-102.653934	80.545279	-24.458490	
754	3.7700	382.446943	1278.560880	-1.740576	470.049258	1285.814186	-310.766198	374.964257	1341.011734	-167.947917	385.086501	1194.938193	-164.136982	405.635580	1016.083696	58.553141	595.981004	913.115469	-4.673186	455.208271	1039.327881	-461.558330	617.221140	915.124472	-382.235856	-106.915810	1088.999922	-250.904209	65.197253	1118.742187	-388.423288	42.972249	1123.851988	-93.270826	100.760009	1035.565592	-350.260136	63.979977	1050.735119	-95.256777	-77.763224	1149.950633	-198.241452	-58.923107	1157.081031	-303.588012	-41.912462	1021.919893	-48.855000	-12.063908	965.633853	-425.762733	82.267931	940.570510	-20.482589	170.713838	931.920476	-31.189050	239.927781	882.091714	-30.622911	181.306798	965.907211	-44.611372	339.215356	828.983297	-47.858025	327.361419	807.622163	-169.267011	242.368499	765.100285	-18.314817	192.884731	692.270333	-31.657166	115.562587	654.388620	-37.543155	215.261168	671.458683	-55.541345	35.758790	584.681830	-51.803036	67.874744	583.521400	-130.290641	-13.598823	600.229969	-102.660430	160.214624	429.909233	-92.291595	77.351137	463.626652	-35.807680	62.985713	858.337710	-429.851718	130.640273	806.093358	-412.435736	157.432584	828.349894	-402.335068	160.707697	723.573629	-395.673341	224.871026	637.780003	-371.366552	207.229951	628.693040	-257.838790	165.610201	267.081058	-370.491361	181.988520	272.295770	-290.777600	113.697231	239.854721	-330.530146	283.279005	178.185789	-387.196745	181.172266	521.693438	-404.395920	203.219547	438.592841	-388.630041	179.843362	352.594636	-385.151358	231.091807	441.896238	-362.485369	365.027623	202.989471	-326.448652	-204.477805	832.893169	-225.336538	-78.227715	81.553109	-423.759426	-102.656410	80.568848	-24.451153	
755	3.7750	378.764463	1278.961803	1.670840	471.016463	1285.817354	-307.407304	373.885215	1341.525292	-165.790062	384.433812	1195.693921	-161.602479	404.909906	1015.546466	59.062493	595.819650	913.180785	-4.713288	455.532622	1040.556494	-460.971457	617.643851	915.446874	-382.434368	-106.784062	1088.830270	-253.100812	66.973730	1117.392985	-389.544925	41.550741	1124.977032	-94.397050	101.226357	1034.846972	-350.385887	63.653265	1051.919542	-95.576214	-81.923161	1151.371980	-197.498076	-57.999946	1156.809108	-306.456064	-42.426847	1023.605812	-50.069403	-11.789788	965.045562	-426.947645	82.995609	944.296896	-20.750987	171.438363	938.029642	-31.647590	242.171669	890.179424	-29.871730	181.244447	971.983740	-45.390656	343.217307	839.238511	-47.226120	333.342154	817.418355	-168.609293	247.661664	773.638053	-18.121285	199.420747	699.998130	-31.402875	122.820036	660.730632	-37.513506	222.332425	679.538865	-54.936566	44.358517	590.364506	-51.311441	76.789662	589.280980	-129.984204	-4.562191	606.644853	-101.901405	167.690915	434.448726	-92.124954	85.459717	468.968308	-35.741518	61.991342	857.720281	-431.358532	127.540356	803.587638	-412.836998	156.043568	826.156017	-403.758994	156.593563	720.871975	-397.090627	218.781885	634.473157	-372.378665	199.792085	626.762996	-258.660690	159.392084	263.531210	-371.060994	175.867021	268.480294	-291.455701	107.502802	236.963551	-330.972463	276.270567	172.929996	-387.556778	174.800768	517.921563	-405.560376	196.544604	434.815627	-389.792122	172.878556	349.047224	-386.483183	224.515731	437.977759	-363.647334	358.322584	196.668518	-326.753630	-204.394075	832.857141	-225.499597	-78.169905	81.632592	-423.666384	-102.646930	80.582024	-24.474086	
